<svg width="46" height="32" viewBox="0 0 46 32" fill="none" xmlns="http://www.w3.org/2000/svg">
<path d="M7.6935 9.04637C17 5.5 22.9999 26.0002 13.4501 29.2419L9.60336 30.3384L11.507 27.897L5.71713 27.6485L8.93818 24.3569L3.62914 23.9714L9.50472 20.8724L4.55137 19.9108L8.12813 16.0431L3.78078 15.3834L5.20359 13.079L1.69278 11.7063L7.6935 9.04637Z" fill="#1B7EFF"/>
<path d="M35.5691 22.9367C20 26.5 13.5 7.99967 29.8125 2.74112L39.4294 -0.000136505L32.5921 3.37291L37.4203 3.89548L34.4298 6.17202L39.6138 6.1185L34.6999 8.94329L38.8167 10.6181L35.6406 14.0675L40.3184 15.8865L37.0973 19.1781L40.6081 20.5509L35.5691 22.9367Z" fill="#1B7EFF"/>
<rect width="23" height="21" transform="translate(7.6936 9.0459) rotate(-15.9099)" fill="#1B7EFF"/>
<path d="M16.5908 22.107L14.4132 14.4673L15.5441 14.145L17.7218 21.7847L16.5908 22.107ZM11.917 15.4284L11.6276 14.4129L17.8824 12.6299L18.1719 13.6455L11.917 15.4284ZM21.2933 20.7666L19.5367 14.6041L20.4137 14.3541L21.1374 16.893L21.0913 16.9061C20.8347 16.006 20.8434 15.2923 21.1173 14.765C21.3968 14.2278 21.9327 13.8462 22.7251 13.6204L22.9329 13.5612L23.2158 14.5536L22.8234 14.6655C22.2079 14.8409 21.7819 15.1412 21.5454 15.5663C21.3067 15.9837 21.275 16.5002 21.4505 17.1157L22.4011 20.4508L21.2933 20.7666ZM26.4982 21.8784L26.2153 20.8859L27.1039 20.6326C27.3655 20.5581 27.5749 20.461 27.7321 20.3413C27.8992 20.2271 28.0185 20.0766 28.0901 19.8899C28.1693 19.7009 28.2112 19.4685 28.2158 19.1927L28.2927 12.1082L29.3775 11.799L29.2674 19.2049C29.2606 19.6477 29.1817 20.0279 29.031 20.3454C28.8825 20.6706 28.6631 20.9369 28.3728 21.1444C28.0925 21.3574 27.7407 21.5242 27.3176 21.6448L26.4982 21.8784ZM27.6556 18.8033L27.3924 17.8801L28.7311 17.4985L28.9943 18.4218L27.6556 18.8033ZM27.5402 18.8362L23.6189 13.4405L24.7498 13.1181L28.5788 18.5402L27.5402 18.8362Z" fill="white"/>
</svg>
